<?xml version="1.0" encoding="UTF-8"?>
<svg version="1.1" xmlns="http://www.w3.org/2000/svg" width="1200" height="1200">
<path d="M0 0 C1.14695343 -0.01251801 2.29390686 -0.02503601 3.47561646 -0.03793335 C4.9776487 -0.06032829 4.9776487 -0.06032829 6.51002502 -0.08317566 C12.07963397 0.19418293 16.69000135 1.99081348 21.28640747 5.05508423 C21.28640747 5.71508423 21.28640747 6.37508423 21.28640747 7.05508423 C21.94640747 7.05508423 22.60640747 7.05508423 23.28640747 7.05508423 C28.57713898 15.9281705 27.80866335 25.11991522 27.71218872 35.10195923 C27.70754559 37.12897429 27.70465442 39.15599397 27.70332336 41.18301392 C27.69426186 46.85184437 27.65954988 52.52028412 27.62097168 58.1889801 C27.58354396 64.32301125 27.56941512 70.45710241 27.55203247 76.59121704 C27.51551454 88.09619335 27.46143267 99.6010067 27.39822388 111.10586548 C27.3130584 126.61364125 27.23893017 142.12144355 27.17068481 157.62930298 C27.16067666 159.89699174 27.15066656 162.16468049 27.14065456 164.43236923 C27.12536402 167.89716646 27.11007694 171.3619637 27.09480613 174.82676101 C26.85615043 228.90303266 26.57959941 282.97908365 26.28640747 337.05508423 C35.85640747 337.05508423 45.42640747 337.05508423 55.28640747 337.05508423 C55.28640747 337.71508423 55.28640747 338.37508423 55.28640747 339.05508423 C55.94640747 339.05508423 56.60640747 339.05508423 57.28640747 339.05508423 C61.28640747 343.52567246 61.28640747 343.52567246 61.28640747 346.05508423 C61.94640747 346.05508423 62.60640747 346.05508423 63.28640747 346.05508423 C65.01296997 347.73477173 65.01296997 347.73477173 66.91140747 349.93008423 C67.85886841 351.00902954 67.85886841 351.00902954 68.82546997 352.10977173 C70.28640747 354.05508423 70.28640747 354.05508423 70.28640747 356.05508423 C70.87035278 356.31805298 71.4542981 356.58102173 72.05593872 356.85195923 C74.38904644 358.11044816 76.03744168 359.50258777 77.97390747 361.30508423 C81.61127276 364.58624802 85.4340475 367.22550418 89.59890747 369.79336548 C90.15578247 370.20973267 90.71265747 370.62609985 91.28640747 371.05508423 C91.28640747 371.71508423 91.28640747 372.37508423 91.28640747 373.05508423 C41.72880277 373.12355187 -7.82880521 373.1872351 -57.38644409 373.22445679 C-58.11981289 373.22500902 -58.8531817 373.22556124 -59.6087738 373.22613021 C-75.54652618 373.2381016 -91.48427907 373.24918236 -107.42203271 373.25934555 C-115.23780667 373.26433493 -123.05358049 373.26952114 -130.86935425 373.27481079 C-132.0360047 373.27559535 -132.0360047 373.27559535 -133.22622386 373.27639575 C-158.43976752 373.29344373 -183.65327534 373.3234909 -208.86679728 373.36027311 C-234.77512277 373.39800031 -260.68342842 373.42262527 -286.59178091 373.43074419 C-290.250437 373.43189682 -293.90909302 373.43319937 -297.56774902 373.4345932 C-298.28783104 373.43486289 -299.00791306 373.43513258 -299.74981574 373.43541045 C-311.34514337 373.44013889 -322.9404097 373.45869534 -334.53571232 373.48241236 C-346.19050624 373.50595635 -357.84522432 373.51463338 -369.50004274 373.50908974 C-375.81588548 373.50652203 -382.13154817 373.51052062 -388.44735909 373.53190613 C-394.22736119 373.55133487 -400.00706171 373.5523779 -405.78707755 373.53867981 C-407.88007885 373.53698617 -409.97309878 373.54209126 -412.06606328 373.55461696 C-414.90859861 373.57064191 -417.75004161 373.56203501 -420.59255981 373.54727554 C-421.40740768 373.5577836 -422.22225555 373.56829165 -423.06179577 373.57911813 C-428.54038118 373.51472394 -433.28706236 372.45626496 -437.71359253 369.05508423 C-438.935776 366.91638185 -438.935776 366.91638185 -439.71359253 365.05508423 C-440.37359253 365.05508423 -441.03359253 365.05508423 -441.71359253 365.05508423 C-443.88432625 359.18133417 -444.10277297 354.18978618 -442.71359253 348.05508423 C-439.84324603 342.31439124 -435.7909793 339.08087982 -429.71359253 337.05508423 C-427.504 336.9039933 -425.29059206 336.80634622 -423.07687378 336.73867798 C-421.77814331 336.69678345 -420.47941284 336.65488892 -419.1413269 336.61172485 C-417.76958492 336.57191436 -416.39784009 336.53220207 -415.02609253 336.49258423 C-413.64261608 336.44937588 -412.25915226 336.40576084 -410.8757019 336.36172485 C-407.48843533 336.25550395 -404.10109454 336.15346065 -400.71359253 336.05508423 C-400.71028238 335.18540229 -400.70697224 334.31572035 -400.70356178 333.41968441 C-400.62232457 312.25374134 -400.53022967 291.08786976 -400.42606544 269.92202663 C-400.37595386 259.68636505 -400.32951073 249.45071142 -400.29171753 239.21499634 C-400.25876584 230.29305613 -400.21891699 221.37117787 -400.17080247 212.44930607 C-400.14556913 207.72570731 -400.12377846 203.00214949 -400.11024857 198.27850151 C-400.09739954 193.83062274 -400.07531445 189.38288458 -400.04620934 184.93508339 C-400.03715578 183.30451861 -400.03144852 181.67393119 -400.02937889 180.04334259 C-400.0260406 177.81231085 -400.01052136 175.58167399 -399.99206543 173.35072327 C-399.98376929 171.47994441 -399.98376929 171.47994441 -399.97530556 169.57137203 C-399.69121732 165.75445849 -398.88500848 162.68406156 -397.71359253 159.05508423 C-397.05359253 159.05508423 -396.39359253 159.05508423 -395.71359253 159.05508423 C-395.50734253 158.47758423 -395.30109253 157.90008423 -395.08859253 157.30508423 C-392.97814879 153.85163084 -389.81107019 151.79286962 -385.998703 150.45187378 C-382.68145879 149.87586319 -379.38305566 149.89914291 -376.02682495 149.89395142 C-375.25719925 149.88898651 -374.48757355 149.88402161 -373.69462585 149.87890625 C-371.15276184 149.86432165 -368.61096024 149.85748872 -366.06906128 149.85195923 C-364.29792785 149.84620462 -362.52679442 149.84044692 -360.75566101 149.83468628 C-357.04266063 149.82418675 -353.32968183 149.81833726 -349.6166687 149.81484985 C-344.86877934 149.80936812 -340.12117717 149.78534257 -335.3733778 149.7568779 C-331.71442339 149.73821512 -328.05553766 149.73304398 -324.39653969 149.73151398 C-322.64671573 149.72849501 -320.89689276 149.72049208 -319.14711571 149.7073288 C-316.69403874 149.69019229 -314.24165694 149.69216687 -311.7885437 149.69863892 C-311.07193573 149.68942413 -310.35532776 149.68020935 -309.61700439 149.67071533 C-302.44928762 149.7296808 -296.9457091 152.1136408 -291.71359253 157.05508423 C-287.79635522 162.5112362 -287.58848142 167.52953325 -287.59333801 174.11021423 C-287.59205638 175.15792827 -287.59205638 175.15792827 -287.59074885 176.22680825 C-287.58910545 178.56062514 -287.5945967 180.8943697 -287.60006714 183.22817993 C-287.60034928 184.90377297 -287.60019074 186.57936614 -287.59962463 188.25495911 C-287.59933772 192.79998345 -287.60521735 197.34498141 -287.61219859 201.88999963 C-287.61844975 206.64124941 -287.61903733 211.39249979 -287.620224 216.14375305 C-287.62333211 225.13924807 -287.63153851 234.13473093 -287.64157349 243.13022059 C-287.65275075 253.37197799 -287.65824915 263.61373597 -287.66326892 273.85549796 C-287.67372154 294.922035 -287.69206058 315.98855539 -287.71359253 337.05508423 C-272.53359253 337.05508423 -257.35359253 337.05508423 -241.71359253 337.05508423 C-241.74912231 330.52791626 -241.7846521 324.00074829 -241.82125854 317.27578735 C-241.93835577 295.60675391 -242.04906253 273.9376912 -242.15655613 252.26860809 C-242.22182382 239.14256462 -242.28920909 226.01653872 -242.36178589 212.89053345 C-242.42512374 201.43444179 -242.48427825 189.978337 -242.53864807 178.52219915 C-242.56750933 172.47036037 -242.59830275 166.4185469 -242.63412666 160.366745 C-242.88921609 116.76103518 -242.88921609 116.76103518 -242.51290691 99.32885838 C-242.47289286 97.36096564 -242.44961476 95.3927541 -242.42709446 93.42458344 C-242.2378471 86.80109031 -241.72196052 82.42106277 -237.71359253 77.05508423 C-235.86203003 75.53164673 -235.86203003 75.53164673 -234.08859253 74.68008423 C-232.29207237 73.81509304 -230.49700374 72.94678984 -228.71359253 72.05508423 C-226.07102999 71.94115521 -223.45421204 71.88725323 -220.8107605 71.87808228 C-219.99426529 71.87151108 -219.17777008 71.86493988 -218.33653259 71.85816956 C-215.62628084 71.83841255 -212.91608466 71.82676626 -210.20578003 71.81680298 C-209.27983158 71.81272745 -208.35388313 71.80865192 -207.39987564 71.8044529 C-202.49533561 71.78357808 -197.59082365 71.76928466 -192.68624878 71.75991821 C-187.62892991 71.74887404 -182.57205351 71.71450126 -177.51489067 71.67474651 C-173.61998703 71.64854573 -169.72518802 71.64022311 -165.83020401 71.63663673 C-163.96675771 71.6317767 -162.1033159 71.62017935 -160.2399559 71.60159874 C-157.6238834 71.57714212 -155.00894456 71.57818444 -152.39279175 71.58511353 C-151.62988327 71.57230347 -150.86697479 71.55949341 -150.08094788 71.54629517 C-143.401757 71.61041577 -138.09191172 73.67676504 -133.33859253 78.43008423 C-129.81673697 84.11923551 -129.43217173 89.26230395 -129.5105896 95.7537384 C-129.51280864 96.60894046 -129.51502768 97.46414252 -129.51731396 98.34525979 C-129.52699528 101.18120174 -129.55097546 104.01683712 -129.57492065 106.85269165 C-129.58458908 108.87319878 -129.59332112 110.89371058 -129.6011734 112.91422558 C-129.61933361 117.15939892 -129.64338635 121.40447939 -129.67224121 125.64959335 C-129.71340698 131.77029743 -129.73910451 137.89097775 -129.76022339 144.01177979 C-129.80099998 155.34567366 -129.85690017 166.67946152 -129.91552162 178.01327538 C-129.94436866 183.6384696 -129.97190544 189.26367027 -129.99960327 194.88887024 C-130.05183742 205.45904243 -130.10518659 216.02920866 -130.15897512 226.59937304 C-130.22033118 238.66789722 -130.28038518 250.73642778 -130.34035015 262.80495894 C-130.46335396 287.55500793 -130.58809845 312.30504773 -130.71359253 337.05508423 C-115.53359253 337.05508423 -100.35359253 337.05508423 -84.71359253 337.05508423 C-84.74912231 331.43791382 -84.7846521 325.82074341 -84.82125854 320.03335571 C-85.99951261 131.0400538 -85.99951261 131.0400538 -85.43125534 62.66188431 C-85.40108396 58.92902359 -85.37472287 55.19615144 -85.34912109 51.46325684 C-85.30869532 45.75092451 -85.25721859 40.03881366 -85.19503403 34.32667732 C-85.1739112 32.29985469 -85.1556826 30.27299938 -85.14065933 28.24612236 C-85.11943049 25.55185699 -85.08583511 22.85805146 -85.04830933 20.16397095 C-85.04458093 19.38876822 -85.04085253 18.6135655 -85.03701115 17.81487179 C-84.97065652 14.0866153 -84.79012005 11.22199501 -82.71359253 8.05508423 C-82.05359253 8.05508423 -81.39359253 8.05508423 -80.71359253 8.05508423 C-80.40421753 7.15789673 -80.40421753 7.15789673 -80.08859253 6.24258423 C-78.14625981 3.15250944 -76.06074842 2.44852817 -72.71359253 1.05508423 C-69.46003723 0.65635681 -69.46003723 0.65635681 -65.90475464 0.62271118 C-65.25176392 0.61251953 -64.59877319 0.60232788 -63.92599487 0.59182739 C-61.78088635 0.56180176 -59.63622713 0.55243675 -57.49093628 0.54336548 C-55.98364328 0.52648637 -54.47636408 0.50833187 -52.96910095 0.4889679 C-49.00397126 0.44153076 -45.03889716 0.41171482 -41.07357788 0.38552856 C-37.07911477 0.35593995 -33.08485861 0.30913202 -29.09054565 0.2640686 C-21.89140545 0.1861392 -14.69233379 0.11635972 -7.49285889 0.07867432 C-4.99515024 0.06308368 -2.49748257 0.0370455 0 0 Z " fill="#a78bfa" transform="translate(684.7135925292969,544.9449157714844)"/>
<path d="M0 0 C27.40579234 -0.8486955 57.5587274 8.55086382 78.65234375 26.21875 C79.77832369 27.1214957 80.90464924 28.02381044 82.03125 28.92578125 C106.64259999 48.96511511 123.57031027 78.44995136 127.37109375 110.171875 C128.59375308 125.29836544 128.37783886 140.46344261 124.65234375 155.21875 C124.48605469 155.87746094 124.31976562 156.53617188 124.1484375 157.21484375 C115.46444111 190.21403003 93.98369096 217.33526567 64.7109375 234.57421875 C54.49270604 240.37698613 44.02149605 244.30482801 32.65234375 247.21875 C31.96237305 247.39664063 31.27240234 247.57453125 30.56152344 247.7578125 C11.83889101 252.3407201 -8.66650921 251.63476801 -27.34765625 247.21875 C-28.05825195 247.05246094 -28.76884766 246.88617187 -29.50097656 246.71484375 C-48.63331149 242.0589353 -69.00372386 231.9175849 -83.34765625 218.21875 C-83.34765625 217.55875 -83.34765625 216.89875 -83.34765625 216.21875 C-83.94578125 215.950625 -84.54390625 215.6825 -85.16015625 215.40625 C-87.34613479 214.21957594 -88.76098219 213.12275887 -90.34765625 211.21875 C-90.34765625 210.55875 -90.34765625 209.89875 -90.34765625 209.21875 C-91.00765625 209.21875 -91.66765625 209.21875 -92.34765625 209.21875 C-93.58105469 207.92456055 -93.58105469 207.92456055 -94.95703125 206.10546875 C-95.7137915 205.10749268 -95.7137915 205.10749268 -96.48583984 204.08935547 C-97.01773926 203.36893066 -97.54963867 202.64850586 -98.09765625 201.90625 C-98.64115723 201.17293457 -99.1846582 200.43961914 -99.74462891 199.68408203 C-120.20488681 171.66870037 -126.99460546 137.09369058 -122.109375 103.0703125 C-120.13175992 93.07067934 -116.86860629 83.35787482 -112.34765625 74.21875 C-111.89519531 73.26484375 -111.44273437 72.3109375 -110.9765625 71.328125 C-107.87851653 64.92281436 -104.48269042 59.00386907 -100.34765625 53.21875 C-99.67089844 52.26355469 -98.99414062 51.30835938 -98.296875 50.32421875 C-91.87923717 41.37237659 -91.87923717 41.37237659 -89.34765625 39.21875 C-88.68765625 39.21875 -88.02765625 39.21875 -87.34765625 39.21875 C-87.01765625 38.22875 -86.68765625 37.23875 -86.34765625 36.21875 C-85.68765625 36.21875 -85.02765625 36.21875 -84.34765625 36.21875 C-84.01765625 35.22875 -83.68765625 34.23875 -83.34765625 33.21875 C-81.30200997 31.38890166 -79.26861353 29.69980378 -77.09765625 28.03125 C-76.46649902 27.54366211 -75.8353418 27.05607422 -75.18505859 26.55371094 C-52.46569759 9.2658834 -28.16414515 1.84036421 0 0 Z M-7.34765625 37.21875 C-10.80080674 42.05316069 -10.68963823 46.51905041 -10.34765625 52.21875 C-11.27384766 52.43917969 -11.27384766 52.43917969 -12.21875 52.6640625 C-21.20843059 55.04489115 -28.10325054 59.28052143 -34.34765625 66.21875 C-35.19328125 67.105625 -36.03890625 67.9925 -36.91015625 68.90625 C-44.78338 78.46836717 -45.28767994 91.43653947 -44.34765625 103.21875 C-43.64357754 106.2520193 -42.76812278 108.43700304 -41.34765625 111.21875 C-40.68765625 111.21875 -40.02765625 111.21875 -39.34765625 111.21875 C-39.31671875 112.45625 -39.31671875 112.45625 -39.28515625 113.71875 C-37.12120934 121.79748512 -30.18341763 126.57005758 -23.27734375 130.6875 C-14.87912358 135.07696974 -6.15894278 136.82319456 3.15844727 138.00488281 C10.9189299 139.09147111 17.59493932 141.89395365 22.51953125 148.1640625 C24.65017943 152.02861748 24.95359852 155.8680707 24.65234375 160.21875 C22.76719043 166.60732514 19.51450737 170.31064092 14.02734375 173.96875 C5.81045876 177.01204074 -2.24849372 176.94337589 -10.25390625 173.3671875 C-14.3166668 171.24973179 -16.68584111 168.87874582 -19.34765625 165.21875 C-20.54286317 163.79099151 -21.75222513 162.37500808 -22.97265625 160.96875 C-23.56304688 160.28296875 -24.1534375 159.5971875 -24.76171875 158.890625 C-26.65906001 156.89047214 -27.68420562 156.26083455 -30.44140625 156.0859375 C-31.23546875 156.08851563 -32.02953125 156.09109375 -32.84765625 156.09375 C-33.64171875 156.09117187 -34.43578125 156.08859375 -35.25390625 156.0859375 C-37.40684159 156.08597004 -37.40684159 156.08597004 -39.34765625 157.21875 C-39.34765625 157.87875 -39.34765625 158.53875 -39.34765625 159.21875 C-40.83265625 159.71375 -40.83265625 159.71375 -42.34765625 160.21875 C-44.8818286 163.68656479 -44.70058428 167.05419921 -44.34765625 171.21875 C-43.51850596 173.682237 -42.49561176 175.8750075 -41.34765625 178.21875 C-40.68765625 178.21875 -40.02765625 178.21875 -39.34765625 178.21875 C-39.23421875 178.80914063 -39.12078125 179.39953125 -39.00390625 180.0078125 C-37.14571524 186.2681465 -31.14969203 190.5098268 -25.86328125 193.86328125 C-21.28889942 196.3280491 -15.63622149 199.21875 -10.34765625 199.21875 C-10.38246094 199.79882812 -10.41726563 200.37890625 -10.453125 200.9765625 C-10.63214736 206.14263646 -10.54737719 209.91912499 -7.34765625 214.21875 C-4.23341606 216.64570959 -1.23435424 218.24302736 2.77734375 218.19140625 C7.6676692 217.21889835 10.44937791 215.10113284 13.65234375 211.21875 C14.91472106 208.69399538 14.75090779 206.90674534 14.71484375 204.09375 C14.70582031 203.18367187 14.69679688 202.27359375 14.6875 201.3359375 C14.67589844 200.63726563 14.66429687 199.93859375 14.65234375 199.21875 C15.34199219 199.07179688 16.03164063 198.92484375 16.7421875 198.7734375 C23.76541161 197.0971124 29.01216998 194.7223108 34.65234375 190.21875 C35.26851562 189.73921875 35.8846875 189.2596875 36.51953125 188.765625 C44.19970738 182.00707001 49.12187836 171.18436931 49.890625 161.08984375 C50.15112932 149.0380911 47.81915308 139.28861998 39.65234375 130.21875 C39.11609375 129.60257813 38.57984375 128.98640625 38.02734375 128.3515625 C28.36109985 117.9245494 14.89293756 114.15849047 1.19750977 112.43310547 C-5.54793952 111.49402582 -11.6787106 109.45043818 -16.28515625 104.21875 C-19.08098958 100.15208333 -19.08098958 100.15208333 -19.34765625 97.21875 C-19.45078125 96.14625 -19.55390625 95.07375 -19.66015625 93.96875 C-19.2144112 88.61980944 -17.56784346 84.66775873 -13.9453125 80.671875 C-8.3662858 76.0340533 -0.94464428 74.93053758 6.14453125 75.375 C12.83268479 76.57840479 18.36749373 79.74864187 22.96484375 84.71875 C24.65234375 87.21875 24.65234375 87.21875 26.02734375 89.84375 C28.18830805 93.00208244 30.07455547 93.9114812 33.65234375 95.21875 C38.66847612 95.74676393 41.64747321 95.33364931 45.65234375 92.21875 C48.36966852 89.78252779 48.94110108 87.62751906 49.21484375 84.09375 C48.89271711 75.56439681 42.8774457 68.72690079 36.921875 63.1015625 C30.47701424 57.75487939 23.61716377 53.77350359 15.65234375 51.21875 C15.59626953 50.33123047 15.59626953 50.33123047 15.5390625 49.42578125 C14.99147278 42.82490927 14.99147278 42.82490927 11.65234375 37.21875 C5.25914557 33.0050512 -0.98277264 32.87905663 -7.34765625 37.21875 Z " fill="#a78bfa" transform="translate(856.34765625,671.78125)"/>
<path d="M0 0 C1.10408203 0.80050781 1.10408203 0.80050781 2.23046875 1.6171875 C2.75253906 2.11476562 3.27460937 2.61234375 3.8125 3.125 C3.8125 3.785 3.8125 4.445 3.8125 5.125 C4.4725 5.125 5.1325 5.125 5.8125 5.125 C9.89997561 13.4702627 8.74006419 20.39658564 7.125 29.3125 C4.9199924 41.92481995 3.17729507 54.58828651 1.47583008 67.27612305 C1.32090088 68.42007034 1.32090088 68.42007034 1.1628418 69.58712769 C0.96791792 71.02755079 0.77548387 72.46831375 0.5859375 73.90945435 C0.19672941 76.78157109 -0.26788796 79.36616389 -1.1875 82.125 C-1.49044382 84.95668318 -1.69505058 87.78902835 -1.90625 90.62890625 C-2.1875 93.125 -2.1875 93.125 -3.1875 95.125 C-3.43069456 96.87917529 -3.62763317 98.63987551 -3.80078125 100.40234375 C-3.91486328 101.47419922 -4.02894531 102.54605469 -4.14648438 103.65039062 C-4.37843476 105.88916035 -4.60265698 108.12874706 -4.81835938 110.36914062 C-5.62567761 117.78499829 -7.30464373 124.2435936 -10.1875 131.125 C-10.8475 131.125 -11.5075 131.125 -12.1875 131.125 C-12.1875 131.785 -12.1875 132.445 -12.1875 133.125 C-16.98723914 136.22483152 -21.30097742 138.53716226 -27.1875 138.125 C-33.44937307 136.73670876 -38.6282169 134.16008401 -42.19140625 128.69921875 C-45.43748 120.3103458 -43.27725574 110.43824366 -41.47363281 101.91601562 C-39.24502295 91.12102427 -38.356901 80.07450392 -37.1875 69.125 C-39.92841621 71.27365793 -42.43580242 73.3790769 -44.875 75.875 C-47.1875 78.125 -47.1875 78.125 -49.1875 78.125 C-49.1875 78.785 -49.1875 79.445 -49.1875 80.125 C-50.76171875 81.67578125 -50.76171875 81.67578125 -52.875 83.4375 C-55.38552294 85.56144684 -57.79573421 87.68001344 -60.0625 90.0625 C-62.1875 92.125 -62.1875 92.125 -64.1875 92.125 C-64.1875 92.785 -64.1875 93.445 -64.1875 94.125 C-65.7265625 95.640625 -65.7265625 95.640625 -67.8125 97.375 C-70.52797759 99.67160073 -73.10012264 101.99650775 -75.5625 104.5625 C-78.1875 107.125 -78.1875 107.125 -80.1875 107.125 C-80.1875 107.785 -80.1875 108.445 -80.1875 109.125 C-81.83203125 110.81640625 -81.83203125 110.81640625 -84 112.6875 C-84.70769531 113.30753906 -85.41539062 113.92757812 -86.14453125 114.56640625 C-88.1875 116.125 -88.1875 116.125 -91.1875 117.125 C-91.1875 117.785 -91.1875 118.445 -91.1875 119.125 C-91.8475 119.125 -92.5075 119.125 -93.1875 119.125 C-93.8475 120.445 -94.5075 121.765 -95.1875 123.125 C-95.8475 123.125 -96.5075 123.125 -97.1875 123.125 C-97.1875 123.785 -97.1875 124.445 -97.1875 125.125 C-98.796875 126.7109375 -98.796875 126.7109375 -100.9375 128.5 C-103.25653702 130.46257727 -105.43969284 132.3838295 -107.5625 134.5625 C-109.1875 136.125 -109.1875 136.125 -111.1875 136.125 C-111.1875 136.785 -111.1875 137.445 -111.1875 138.125 C-111.8475 138.125 -112.5075 138.125 -113.1875 138.125 C-113.5175 139.115 -113.8475 140.105 -114.1875 141.125 C-115.89453125 142.87890625 -115.89453125 142.87890625 -118 144.6875 C-118.68707031 145.28691406 -119.37414062 145.88632812 -120.08203125 146.50390625 C-122.05305845 148.02148749 -123.92714261 149.10402958 -126.1875 150.125 C-126.1875 150.785 -126.1875 151.445 -126.1875 152.125 C-126.8475 152.125 -127.5075 152.125 -128.1875 152.125 C-128.1875 152.785 -128.1875 153.445 -128.1875 154.125 C-129.5859375 155.5 -129.5859375 155.5 -131.5625 157.125 C-134.93545148 159.98545355 -138.08423477 162.97369661 -141.1875 166.125 C-144.80669574 169.78867126 -148.51586606 173.24597571 -152.43359375 176.5859375 C-154.06146202 178.01440097 -155.5650441 179.49955769 -157.0625 181.0625 C-159.1875 183.125 -159.1875 183.125 -161.1875 183.125 C-161.1875 183.785 -161.1875 184.445 -161.1875 185.125 C-161.8475 185.125 -162.5075 185.125 -163.1875 185.125 C-163.1875 185.785 -163.1875 186.445 -163.1875 187.125 C-163.8475 187.125 -164.5075 187.125 -165.1875 187.125 C-165.1875 187.785 -165.1875 188.445 -165.1875 189.125 C-166.69140625 190.60546875 -166.69140625 190.60546875 -168.75 192.3125 C-172.29746174 195.31177493 -175.55272872 198.46495132 -178.7421875 201.83984375 C-180.1875 203.125 -180.1875 203.125 -182.1875 203.125 C-182.1875 203.785 -182.1875 204.445 -182.1875 205.125 C-182.8475 205.125 -183.5075 205.125 -184.1875 205.125 C-184.1875 205.785 -184.1875 206.445 -184.1875 207.125 C-185.796875 208.78125 -185.796875 208.78125 -187.9375 210.625 C-188.63359375 211.2334375 -189.3296875 211.841875 -190.046875 212.46875 C-192.1875 214.125 -192.1875 214.125 -194.375 215.2109375 C-196.72953534 216.39835403 -197.22860635 217.72776586 -198.1875 220.125 C-198.8475 220.125 -199.5075 220.125 -200.1875 220.125 C-200.1875 220.785 -200.1875 221.445 -200.1875 222.125 C-200.8475 222.125 -201.5075 222.125 -202.1875 222.125 C-202.1875 222.785 -202.1875 223.445 -202.1875 224.125 C-202.8475 224.125 -203.5075 224.125 -204.1875 224.125 C-204.1875 224.785 -204.1875 225.445 -204.1875 226.125 C-205.76171875 227.67578125 -205.76171875 227.67578125 -207.875 229.4375 C-210.38552294 231.56144684 -212.79573421 233.68001344 -215.0625 236.0625 C-217.1875 238.125 -217.1875 238.125 -219.1875 238.125 C-219.1875 238.785 -219.1875 239.445 -219.1875 240.125 C-219.8475 240.125 -220.5075 240.125 -221.1875 240.125 C-221.1875 240.785 -221.1875 241.445 -221.1875 242.125 C-221.8475 242.125 -222.5075 242.125 -223.1875 242.125 C-223.1875 242.785 -223.1875 243.445 -223.1875 244.125 C-223.8475 244.125 -224.5075 244.125 -225.1875 244.125 C-225.1875 244.785 -225.1875 245.445 -225.1875 246.125 C-226.796875 247.7109375 -226.796875 247.7109375 -228.9375 249.5 C-231.25653702 251.46257727 -233.43969284 253.3838295 -235.5625 255.5625 C-237.1875 257.125 -237.1875 257.125 -239.1875 257.125 C-239.1875 257.785 -239.1875 258.445 -239.1875 259.125 C-239.8475 259.125 -240.5075 259.125 -241.1875 259.125 C-241.1875 259.785 -241.1875 260.445 -241.1875 261.125 C-242.69140625 262.60546875 -242.69140625 262.60546875 -244.75 264.3125 C-247.59318881 266.71018915 -250.21189299 269.15807181 -252.75 271.875 C-257.04910688 276.19351594 -261.12592105 277.76504177 -267.125 278.8125 C-277.48991203 278.45814403 -288.41638156 270.20637924 -296.74609375 264.70703125 C-299.01623126 263.23598215 -301.30969665 261.91245261 -303.6875 260.625 C-307.11947324 258.76192881 -310.40488235 256.74046471 -313.6875 254.625 C-317.63394401 252.08331514 -321.62442195 249.74148162 -325.74609375 247.5 C-329.90116486 245.15986395 -333.93157719 242.61726088 -337.984375 240.10546875 C-341.55990464 237.89474494 -345.15763053 235.7248611 -348.76953125 233.57421875 C-350.48268054 232.54743622 -352.18765574 231.50695875 -353.88671875 230.45703125 C-354.76972656 229.91433594 -355.65273438 229.37164062 -356.5625 228.8125 C-357.35398437 228.32136719 -358.14546875 227.83023438 -358.9609375 227.32421875 C-361.92481645 225.70810612 -361.92481645 225.70810612 -365.1875 225.125 C-367.31691123 226.50339208 -367.31691123 226.50339208 -369.25 228.5 C-371.69586594 230.85666929 -372.92004202 232.03584734 -376.1875 233.125 C-376.1875 233.785 -376.1875 234.445 -376.1875 235.125 C-376.8475 235.125 -377.5075 235.125 -378.1875 235.125 C-378.1875 235.785 -378.1875 236.445 -378.1875 237.125 C-379.796875 238.78125 -379.796875 238.78125 -381.9375 240.625 C-382.63359375 241.2334375 -383.3296875 241.841875 -384.046875 242.46875 C-386.1875 244.125 -386.1875 244.125 -388.328125 245.09375 C-390.69828359 246.40829174 -391.05770822 247.70597002 -392.1875 250.125 C-393.78125 251.73046875 -393.78125 251.73046875 -395.6875 253.3125 C-399.00397161 256.11967798 -402.270838 258.96733583 -405.5 261.875 C-406.32113281 262.61234375 -407.14226562 263.3496875 -407.98828125 264.109375 C-409.3173707 265.32751027 -410.61740703 266.58007723 -411.85546875 267.890625 C-413.1875 269.125 -413.1875 269.125 -415.1875 269.125 C-415.1875 269.785 -415.1875 270.445 -415.1875 271.125 C-416.41015625 272.359375 -416.41015625 272.359375 -418.25 273.875 C-421.24373776 276.40484326 -424.14347242 279.00439492 -426.98828125 281.69921875 C-427.99266235 282.65006348 -427.99266235 282.65006348 -429.01733398 283.62011719 C-430.37568265 284.91019979 -431.73069778 286.20380187 -433.08227539 287.50097656 C-433.71254639 288.09749023 -434.34281738 288.69400391 -434.9921875 289.30859375 C-435.55921387 289.85056396 -436.12624023 290.39253418 -436.71044922 290.95092773 C-438.1875 292.125 -438.1875 292.125 -440.1875 292.125 C-440.1875 292.785 -440.1875 293.445 -440.1875 294.125 C-441.8671875 295.8515625 -441.8671875 295.8515625 -444.0625 297.75 C-445.14144531 298.69746094 -445.14144531 298.69746094 -446.2421875 299.6640625 C-448.1875 301.125 -448.1875 301.125 -450.1875 301.125 C-450.43628906 301.71152344 -450.68507813 302.29804687 -450.94140625 302.90234375 C-452.36161196 305.43556333 -453.89933746 306.83485353 -456.125 308.6875 C-459.07056043 311.15690133 -459.07056043 311.15690133 -461.81640625 313.83984375 C-463.1875 315.125 -463.1875 315.125 -465.1875 315.125 C-465.1875 315.785 -465.1875 316.445 -465.1875 317.125 C-466.796875 318.78125 -466.796875 318.78125 -468.9375 320.625 C-469.63359375 321.2334375 -470.3296875 321.841875 -471.046875 322.46875 C-473.03210792 324.00476963 -474.90622045 325.0973966 -477.1875 326.125 C-477.1875 326.785 -477.1875 327.445 -477.1875 328.125 C-478.48046875 329.4296875 -478.48046875 329.4296875 -480.375 331 C-483.16143779 333.3562158 -485.88420377 335.75546127 -488.54296875 338.25390625 C-489.12344971 338.79869629 -489.70393066 339.34348633 -490.30200195 339.90478516 C-491.46919662 341.00383547 -492.63314367 342.10634571 -493.79370117 343.21240234 C-497.96726324 347.125 -497.96726324 347.125 -500.1875 347.125 C-500.1875 347.785 -500.1875 348.445 -500.1875 349.125 C-500.8475 349.125 -501.5075 349.125 -502.1875 349.125 C-502.1875 349.785 -502.1875 350.445 -502.1875 351.125 C-502.8475 351.125 -503.5075 351.125 -504.1875 351.125 C-504.1875 351.785 -504.1875 352.445 -504.1875 353.125 C-505.796875 354.78125 -505.796875 354.78125 -507.9375 356.625 C-508.63359375 357.2334375 -509.3296875 357.841875 -510.046875 358.46875 C-512.03210792 360.00476963 -513.90622045 361.0973966 -516.1875 362.125 C-516.1875 362.785 -516.1875 363.445 -516.1875 364.125 C-517.83203125 365.81640625 -517.83203125 365.81640625 -520 367.6875 C-520.70769531 368.30753906 -521.41539062 368.92757813 -522.14453125 369.56640625 C-524.1875 371.125 -524.1875 371.125 -527.1875 372.125 C-527.1875 372.785 -527.1875 373.445 -527.1875 374.125 C-527.8475 374.125 -528.5075 374.125 -529.1875 374.125 C-529.1875 374.785 -529.1875 375.445 -529.1875 376.125 C-530.796875 377.78125 -530.796875 377.78125 -532.9375 379.625 C-533.63359375 380.2334375 -534.3296875 380.841875 -535.046875 381.46875 C-537.1875 383.125 -537.1875 383.125 -539.375 384.2109375 C-541.72953534 385.39835403 -542.22860635 386.72776586 -543.1875 389.125 C-543.8475 389.125 -544.5075 389.125 -545.1875 389.125 C-545.1875 389.785 -545.1875 390.445 -545.1875 391.125 C-546.515625 392.5 -546.515625 392.5 -548.4375 394.125 C-549.5203125 395.04152344 -549.5203125 395.04152344 -550.625 395.9765625 C-551.470625 396.68554688 -552.31625 397.39453125 -553.1875 398.125 C-554.20912955 399.00689096 -555.22992289 399.8897513 -556.25 400.7734375 C-557.31203981 401.68282938 -558.37453798 402.59168623 -559.4375 403.5 C-560.43265625 404.35335938 -561.4278125 405.20671875 -562.453125 406.0859375 C-567.30667213 409.70529693 -572.29619827 409.65421863 -578.1875 409.125 C-584.10319423 407.42047793 -588.1959596 404.50575723 -591.1875 399.125 C-593.19872876 391.64796133 -591.80431876 385.84194912 -588.1875 379.125 C-587.5275 379.125 -586.8675 379.125 -586.1875 379.125 C-586.1875 378.465 -586.1875 377.805 -586.1875 377.125 C-584.5078125 375.3984375 -584.5078125 375.3984375 -582.3125 373.5 C-581.23355469 372.55253906 -581.23355469 372.55253906 -580.1328125 371.5859375 C-578.1875 370.125 -578.1875 370.125 -576.1875 370.125 C-576.1875 369.465 -576.1875 368.805 -576.1875 368.125 C-575.5275 368.125 -574.8675 368.125 -574.1875 368.125 C-574.1875 367.465 -574.1875 366.805 -574.1875 366.125 C-572.89453125 364.8203125 -572.89453125 364.8203125 -571 363.25 C-568.21356221 360.8937842 -565.49079623 358.49453873 -562.83203125 355.99609375 C-561.96130981 355.17890869 -561.96130981 355.17890869 -561.07299805 354.34521484 C-559.90580338 353.24616453 -558.74185633 352.14365429 -557.58129883 351.03759766 C-553.40773676 347.125 -553.40773676 347.125 -551.1875 347.125 C-551.1875 346.465 -551.1875 345.805 -551.1875 345.125 C-550.5275 345.125 -549.8675 345.125 -549.1875 345.125 C-549.1875 344.465 -549.1875 343.805 -549.1875 343.125 C-548.5275 343.125 -547.8675 343.125 -547.1875 343.125 C-547.1875 342.465 -547.1875 341.805 -547.1875 341.125 C-545.5078125 339.3984375 -545.5078125 339.3984375 -543.3125 337.5 C-542.23355469 336.55253906 -542.23355469 336.55253906 -541.1328125 335.5859375 C-539.1875 334.125 -539.1875 334.125 -537.1875 334.125 C-537.1875 333.465 -537.1875 332.805 -537.1875 332.125 C-536.5275 332.125 -535.8675 332.125 -535.1875 332.125 C-535.1875 331.465 -535.1875 330.805 -535.1875 330.125 C-533.54296875 328.43359375 -533.54296875 328.43359375 -531.375 326.5625 C-530.66730469 325.94246094 -529.95960938 325.32242187 -529.23046875 324.68359375 C-527.1875 323.125 -527.1875 323.125 -524.1875 322.125 C-524.1875 321.465 -524.1875 320.805 -524.1875 320.125 C-522.578125 318.46875 -522.578125 318.46875 -520.4375 316.625 C-519.74140625 316.0165625 -519.0453125 315.408125 -518.328125 314.78125 C-516.1875 313.125 -516.1875 313.125 -514 312.0390625 C-511.64546466 310.85164597 -511.14639365 309.52223414 -510.1875 307.125 C-509.5275 307.125 -508.8675 307.125 -508.1875 307.125 C-508.1875 306.465 -508.1875 305.805 -508.1875 305.125 C-506.578125 303.46875 -506.578125 303.46875 -504.4375 301.625 C-503.74140625 301.0165625 -503.0453125 300.408125 -502.328125 299.78125 C-500.34289208 298.24523037 -498.46877955 297.1526034 -496.1875 296.125 C-496.1875 295.465 -496.1875 294.805 -496.1875 294.125 C-494.54296875 292.43359375 -494.54296875 292.43359375 -492.375 290.5625 C-491.66730469 289.94246094 -490.95960938 289.32242187 -490.23046875 288.68359375 C-488.1875 287.125 -488.1875 287.125 -485.1875 286.125 C-485.1875 285.465 -485.1875 284.805 -485.1875 284.125 C-483.578125 282.5390625 -483.578125 282.5390625 -481.4375 280.75 C-479.11846298 278.78742273 -476.93530716 276.8661705 -474.8125 274.6875 C-473.1875 273.125 -473.1875 273.125 -471.1875 273.125 C-471.1875 272.465 -471.1875 271.805 -471.1875 271.125 C-469.7265625 269.6171875 -469.7265625 269.6171875 -467.8125 268 C-466.87277344 267.19175781 -466.87277344 267.19175781 -465.9140625 266.3671875 C-464.1875 265.125 -464.1875 265.125 -462.1875 265.125 C-461.94 264.54234375 -461.6925 263.9596875 -461.4375 263.359375 C-460.00224554 260.79385764 -458.41086987 259.28775202 -456.1875 257.375 C-455.48625 256.76140625 -454.785 256.1478125 -454.0625 255.515625 C-452.1875 254.125 -452.1875 254.125 -450.1875 254.125 C-449.5275 252.805 -448.8675 251.485 -448.1875 250.125 C-447.5275 250.125 -446.8675 250.125 -446.1875 250.125 C-446.1875 249.465 -446.1875 248.805 -446.1875 248.125 C-444.89453125 246.8203125 -444.89453125 246.8203125 -443 245.25 C-440.21356221 242.8937842 -437.49079623 240.49453873 -434.83203125 237.99609375 C-434.25155029 237.45130371 -433.67106934 236.90651367 -433.07299805 236.34521484 C-431.90580338 235.24616453 -430.74185633 234.14365429 -429.58129883 233.03759766 C-425.40773676 229.125 -425.40773676 229.125 -423.1875 229.125 C-423.1875 228.465 -423.1875 227.805 -423.1875 227.125 C-421.578125 225.46875 -421.578125 225.46875 -419.4375 223.625 C-418.74140625 223.0165625 -418.0453125 222.408125 -417.328125 221.78125 C-415.1875 220.125 -415.1875 220.125 -413 219.0390625 C-410.64546466 217.85164597 -410.14639365 216.52223414 -409.1875 214.125 C-408.5275 214.125 -407.8675 214.125 -407.1875 214.125 C-407.1875 213.465 -407.1875 212.805 -407.1875 212.125 C-405.7265625 210.6171875 -405.7265625 210.6171875 -403.8125 209 C-403.18601562 208.46117187 -402.55953125 207.92234375 -401.9140625 207.3671875 C-400.1875 206.125 -400.1875 206.125 -398.1875 206.125 C-398.1875 205.465 -398.1875 204.805 -398.1875 204.125 C-397.5275 204.125 -396.8675 204.125 -396.1875 204.125 C-396.1875 203.465 -396.1875 202.805 -396.1875 202.125 C-394.578125 200.46875 -394.578125 200.46875 -392.4375 198.625 C-391.74140625 198.0165625 -391.0453125 197.408125 -390.328125 196.78125 C-388.1875 195.125 -388.1875 195.125 -386.046875 194.15625 C-383.67828801 192.8425799 -383.37040334 191.51779307 -382.1875 189.125 C-376.95596962 184.66130676 -371.24250268 181.95593735 -364.3125 182.33984375 C-354.98892934 184.68239088 -346.54385797 191.05050551 -338.73046875 196.4609375 C-334.39298383 199.29929169 -329.88357653 201.85502531 -325.38891602 204.43530273 C-321.35594028 206.77037939 -317.54821851 209.25309023 -313.78662109 212.00219727 C-311.56338957 213.56321128 -309.22253929 214.81405623 -306.8125 216.0625 C-302.46843345 218.37696168 -298.41782812 220.9177187 -294.359375 223.6953125 C-291.52616475 225.56033939 -288.57987121 227.15251608 -285.58984375 228.75 C-281.79716964 230.92076632 -278.24190754 233.45328792 -274.66796875 235.96484375 C-272.27741958 237.42142052 -272.27741958 237.42142052 -269.99609375 236.44921875 C-268.04754596 235.09327781 -268.04754596 235.09327781 -266.0625 233 C-265.44375 232.38125 -264.825 231.7625 -264.1875 231.125 C-263.5275 231.125 -262.8675 231.125 -262.1875 231.125 C-262.1875 230.465 -262.1875 229.805 -262.1875 229.125 C-261.5275 229.125 -260.8675 229.125 -260.1875 229.125 C-259.5275 227.805 -258.8675 226.485 -258.1875 225.125 C-257.5275 225.125 -256.8675 225.125 -256.1875 225.125 C-256.1875 224.465 -256.1875 223.805 -256.1875 223.125 C-255.5275 223.125 -254.8675 223.125 -254.1875 223.125 C-253.5275 221.805 -252.8675 220.485 -252.1875 219.125 C-251.5275 219.125 -250.8675 219.125 -250.1875 219.125 C-250.1875 218.465 -250.1875 217.805 -250.1875 217.125 C-248.54296875 215.50390625 -248.54296875 215.50390625 -246.375 213.6875 C-243.36286735 211.15160668 -243.36286735 211.15160668 -240.55078125 208.40234375 C-239.1875 207.125 -239.1875 207.125 -237.1875 207.125 C-237.1875 206.465 -237.1875 205.805 -237.1875 205.125 C-236.5275 205.125 -235.8675 205.125 -235.1875 205.125 C-235.1875 204.465 -235.1875 203.805 -235.1875 203.125 C-234.5275 203.125 -233.8675 203.125 -233.1875 203.125 C-233.1875 202.465 -233.1875 201.805 -233.1875 201.125 C-231.71875 199.6796875 -231.71875 199.6796875 -229.6875 198 C-225.8375766 194.74606119 -222.32685665 191.27727282 -218.8515625 187.62890625 C-217.1875 186.125 -217.1875 186.125 -215.1875 186.125 C-215.1875 185.465 -215.1875 184.805 -215.1875 184.125 C-213.54296875 182.50390625 -213.54296875 182.50390625 -211.375 180.6875 C-208.36286735 178.15160668 -208.36286735 178.15160668 -205.55078125 175.40234375 C-204.1875 174.125 -204.1875 174.125 -202.1875 174.125 C-201.5275 172.805 -200.8675 171.485 -200.1875 170.125 C-199.5275 170.125 -198.8675 170.125 -198.1875 170.125 C-198.1875 169.465 -198.1875 168.805 -198.1875 168.125 C-197.5275 168.125 -196.8675 168.125 -196.1875 168.125 C-196.1875 167.465 -196.1875 166.805 -196.1875 166.125 C-194.74511719 164.69067383 -194.74511719 164.69067383 -192.734375 163.01953125 C-189.68305561 160.42590977 -186.7221899 157.78009631 -183.828125 155.01171875 C-183.10496094 154.32142578 -182.38179687 153.63113281 -181.63671875 152.91992188 C-180.15266886 151.49781723 -178.6709487 150.07327792 -177.19140625 148.64648438 C-176.47339844 147.96263672 -175.75539063 147.27878906 -175.015625 146.57421875 C-174.3752832 145.95893311 -173.73494141 145.34364746 -173.07519531 144.7097168 C-171.19732557 143.13324855 -169.41958688 142.11941142 -167.1875 141.125 C-167.1875 140.465 -167.1875 139.805 -167.1875 139.125 C-166.5275 139.125 -165.8675 139.125 -165.1875 139.125 C-165.1875 138.465 -165.1875 137.805 -165.1875 137.125 C-164.5275 137.125 -163.8675 137.125 -163.1875 137.125 C-163.1875 136.465 -163.1875 135.805 -163.1875 135.125 C-162.5275 135.125 -161.8675 135.125 -161.1875 135.125 C-161.1875 134.465 -161.1875 133.805 -161.1875 133.125 C-159.54296875 131.50390625 -159.54296875 131.50390625 -157.375 129.6875 C-154.36286735 127.15160668 -154.36286735 127.15160668 -151.55078125 124.40234375 C-150.1875 123.125 -150.1875 123.125 -148.1875 123.125 C-148.1875 122.465 -148.1875 121.805 -148.1875 121.125 C-147.5275 121.125 -146.8675 121.125 -146.1875 121.125 C-146.1875 120.465 -146.1875 119.805 -146.1875 119.125 C-145.5275 119.125 -144.8675 119.125 -144.1875 119.125 C-144.1875 118.465 -144.1875 117.805 -144.1875 117.125 C-142.5078125 115.3984375 -142.5078125 115.3984375 -140.3125 113.5 C-139.59320312 112.86835938 -138.87390625 112.23671875 -138.1328125 111.5859375 C-136.1875 110.125 -136.1875 110.125 -134.1875 110.125 C-134.1875 109.465 -134.1875 108.805 -134.1875 108.125 C-133.5275 108.125 -132.8675 108.125 -132.1875 108.125 C-131.5275 106.805 -130.8675 105.485 -130.1875 104.125 C-129.5275 104.125 -128.8675 104.125 -128.1875 104.125 C-128.1875 103.465 -128.1875 102.805 -128.1875 102.125 C-126.54296875 100.50390625 -126.54296875 100.50390625 -124.375 98.6875 C-121.36286735 96.15160668 -121.36286735 96.15160668 -118.55078125 93.40234375 C-117.1875 92.125 -117.1875 92.125 -115.1875 92.125 C-115.1875 91.465 -115.1875 90.805 -115.1875 90.125 C-114.5275 90.125 -113.8675 90.125 -113.1875 90.125 C-113.1875 89.465 -113.1875 88.805 -113.1875 88.125 C-112.5275 88.125 -111.8675 88.125 -111.1875 88.125 C-111.1875 87.465 -111.1875 86.805 -111.1875 86.125 C-109.6484375 84.609375 -109.6484375 84.609375 -107.5625 82.875 C-104.84702241 80.57839927 -102.27487736 78.25349225 -99.8125 75.6875 C-97.1875 73.125 -97.1875 73.125 -95.1875 73.125 C-95.1875 72.465 -95.1875 71.805 -95.1875 71.125 C-94.5275 71.125 -93.8675 71.125 -93.1875 71.125 C-93.1875 70.465 -93.1875 69.805 -93.1875 69.125 C-91.54296875 67.43359375 -91.54296875 67.43359375 -89.375 65.5625 C-88.66730469 64.94246094 -87.95960938 64.32242188 -87.23046875 63.68359375 C-85.1875 62.125 -85.1875 62.125 -82.1875 61.125 C-82.1875 60.465 -82.1875 59.805 -82.1875 59.125 C-81.5275 59.125 -80.8675 59.125 -80.1875 59.125 C-80.1875 58.465 -80.1875 57.805 -80.1875 57.125 C-78.7890625 55.75 -78.7890625 55.75 -76.8125 54.125 C-73.33525422 51.19611394 -70.09959776 48.10270388 -66.8984375 44.875 C-66.0120459 43.98296875 -65.1256543 43.0909375 -64.21240234 42.171875 C-63.21007568 41.15867187 -63.21007568 41.15867187 -62.1875 40.125 C-62.79312271 40.20016846 -63.39874542 40.27533691 -64.02272034 40.3527832 C-70.39820269 41.14226397 -76.77516297 41.91888638 -83.15307617 42.68847656 C-85.52456189 42.97628057 -87.89566899 43.26722427 -90.26635742 43.56152344 C-125.82602372 47.96993242 -125.82602372 47.96993242 -134.1875 43.125 C-137.50158908 40.0313254 -140.0885277 36.83284759 -140.35546875 32.2265625 C-140.36191406 31.07929688 -140.36835937 29.93203125 -140.375 28.75 C-140.38917969 27.60789062 -140.40335938 26.46578125 -140.41796875 25.2890625 C-140.19920034 22.28563184 -139.75830637 20.64574066 -138.1875 18.125 C-137.5275 18.125 -136.8675 18.125 -136.1875 18.125 C-136.001875 17.526875 -135.81625 16.92875 -135.625 16.3125 C-133.5547506 13.16212048 -130.64223413 12.28211991 -127.1875 11.125 C-124.54218862 10.61774125 -122.00885223 10.21401672 -119.34375 9.9140625 C-118.59437164 9.82095291 -117.84499329 9.72784332 -117.07290649 9.63191223 C-114.612175 9.32829218 -112.14996194 9.03921851 -109.6875 8.75 C-107.94631798 8.53763419 -106.20527156 8.32415403 -104.46435547 8.10961914 C-100.84490047 7.66439283 -97.22490663 7.22397322 -93.60449219 6.78662109 C-85.97808575 5.86079846 -78.36069106 4.86622905 -70.74230957 3.87698364 C-64.34419748 3.0488934 -57.94383928 2.23826476 -51.54382324 1.42504883 C-49.179103 1.12393075 -46.81463036 0.82092671 -44.45019531 0.51757812 C-40.65787149 0.03169358 -36.86467634 -0.44677049 -33.07073975 -0.91989136 C-31.67578893 -1.09488383 -30.28111956 -1.27213848 -28.88677979 -1.45193481 C-5.80814512 -4.42223071 -5.80814512 -4.42223071 0 0 Z " fill="#a78bfa" transform="translate(852.1875,235.875)"/>
<path d="M0 0 C1.19898674 -0.00788544 1.19898674 -0.00788544 2.42219543 -0.01593018 C5.04533856 -0.02905573 7.6678671 -0.02041876 10.29101562 -0.01025391 C12.12512325 -0.01227679 13.95923008 -0.01519001 15.79333496 -0.01895142 C19.62971688 -0.02336468 23.46588868 -0.0169759 27.30224609 -0.00292969 C32.20815509 0.01416159 37.11357163 0.00431506 42.01946259 -0.01364708 C45.80454182 -0.0245119 49.5895052 -0.02102621 53.37458801 -0.0132637 C55.18300943 -0.01126915 56.99144152 -0.01369467 58.79985046 -0.02070236 C61.33169225 -0.02836141 63.86274769 -0.01665091 66.39453125 0 C67.1344783 -0.00607269 67.87442535 -0.01214539 68.63679504 -0.0184021 C74.41214999 0.05160473 79.16461406 1.22027495 83.62304688 5.03662109 C84.08066406 5.60638672 84.53828125 6.17615234 85.00976562 6.76318359 C85.48027344 7.32779297 85.95078125 7.89240234 86.43554688 8.47412109 C89.59043624 13.26017617 89.98396458 17.65738719 89.94450378 23.27178955 C89.9469182 24.05939816 89.94933262 24.84700677 89.95182019 25.65848231 C89.95744998 28.29405337 89.94879965 30.92938129 89.94018555 33.56494141 C89.94125858 35.45565863 89.94319756 37.34637553 89.94593811 39.23709106 C89.95078496 44.36896236 89.9431337 49.50074668 89.93298507 54.63260746 C89.9242063 59.99731918 89.92596195 65.36202817 89.92634583 70.72674561 C89.92540939 79.73174497 89.91672643 88.73671063 89.90307617 97.74169922 C89.88733181 108.16697958 89.88207873 118.59222307 89.88281173 129.01751447 C89.883421 139.03469942 89.87832595 149.05187231 89.87001991 159.06905365 C89.8664808 163.33859094 89.86465578 167.60812397 89.86412621 171.87766266 C89.86312528 176.89761083 89.85704927 181.91752778 89.84696007 186.93746567 C89.84402757 188.78503859 89.8428112 190.63261511 89.8433876 192.48019028 C89.8438747 194.99099798 89.83825837 197.50171683 89.83097839 200.01251221 C89.832527 200.75325084 89.8340756 201.49398947 89.83567113 202.25717473 C89.81144464 207.27400458 89.81144464 207.27400458 88.69726562 208.38818359 C87.24839766 208.49774917 85.79466565 208.54408213 84.34179688 208.56396484 C55.69350046 209.21039308 30.5983744 215.39076883 5.55273438 229.3984375 C3.33172241 230.58317204 1.06549686 231.53768785 -1.30273438 232.38818359 C-1.30273438 233.04818359 -1.30273438 233.70818359 -1.30273438 234.38818359 C-2.61177734 234.99146484 -2.61177734 234.99146484 -3.94726562 235.60693359 C-7.34714509 237.41175901 -10.04301564 239.42189176 -12.99023438 241.88818359 C-13.92222656 242.66162109 -14.85421875 243.43505859 -15.81445312 244.23193359 C-17.27537293 245.49791119 -18.70985606 246.79800145 -20.07226562 248.16943359 C-21.30273438 249.38818359 -21.30273438 249.38818359 -22.30273438 249.38818359 C-23.57768171 226.52120925 -23.46724119 203.64887105 -23.46999145 180.75425529 C-23.47070884 177.39263117 -23.47285568 174.03101096 -23.47548866 170.66938782 C-23.48468313 158.91663357 -23.48882978 147.16389054 -23.48803711 135.41113281 C-23.48743336 124.48798187 -23.49805815 113.56487982 -23.51378077 102.64174128 C-23.52685842 93.21781766 -23.53222113 83.79391009 -23.5315817 74.36997747 C-23.53132739 68.76022956 -23.53414349 63.15052553 -23.54475975 57.54078674 C-23.55444802 52.28086824 -23.55451493 47.02103568 -23.54724312 41.76111412 C-23.54619919 39.83625348 -23.54854875 37.91138743 -23.55460358 35.98653603 C-23.56235155 33.35253659 -23.55766078 30.71883221 -23.54997253 28.08483887 C-23.5551161 27.33046303 -23.56025966 26.5760872 -23.56555909 25.79885149 C-23.52387776 19.30394293 -23.17407098 11.53414884 -18.61523438 6.51318359 C-18.15761719 5.97951172 -17.7 5.44583984 -17.22851562 4.89599609 C-11.91575562 0.73630976 -6.58330999 -0.05402876 0 0 Z " fill="#a78bfa" transform="translate(779.302734375,442.61181640625)"/>
</svg>
