<?xml version="1.0" encoding="UTF-8"?>
<svg version="1.1" xmlns="http://www.w3.org/2000/svg" width="1200" height="1200">
<path d="M0 0 C1.14855469 0.165 2.29710937 0.33 3.48046875 0.5 C12.64522121 2.12748101 19.948233 5.47970976 28 10 C29.14082031 10.61875 29.14082031 10.61875 30.3046875 11.25 C36.21512088 14.66808195 41.05993073 19.33163454 46 24 C46.6496875 24.59683594 47.299375 25.19367188 47.96875 25.80859375 C49.37711896 27.14056534 50.69945716 28.56255791 52 30 C52 30.99 52 31.98 52 33 C52.66 33 53.32 33 54 33 C55.05771739 34.63064764 56.05273046 36.30280873 57 38 C57.66 38.99 58.32 39.98 59 41 C59 41.99 59 42.98 59 44 C59.66 44 60.32 44 61 44 C65.19250439 55.00266381 68.22840199 65.00867051 68.7890625 76.8359375 C68.97679896 79.65198433 69.37248159 82.25332105 70 85 C71.19625 85.268125 72.3925 85.53625 73.625 85.8125 C77.40074345 86.75147648 80.528549 88.22885153 84 90 C85.40893692 90.50143983 86.82657094 90.97881183 88.25 91.4375 C97.39026636 94.40273691 105.63919716 98.271652 114 103 C114.76183594 103.4125 115.52367187 103.825 116.30859375 104.25 C122.39207444 107.54657421 128.200356 111.2302314 134 115 C135.051875 115.680625 136.10375 116.36125 137.1875 117.0625 C140.22977626 119.15829031 143.15979386 121.37464139 146.09765625 123.61328125 C148.12885713 125.14328223 148.12885713 125.14328223 151 126.75 C151.66 127.1625 152.32 127.575 153 128 C153 128.66 153 129.32 153 130 C153.8971875 130.433125 153.8971875 130.433125 154.8125 130.875 C157 132 157 132 160 134 C160 134.66 160 135.32 160 136 C160.7425 136.226875 161.485 136.45375 162.25 136.6875 C165.58492105 138.27916686 166.74845847 140.08624037 169 143 C170.0848536 143.95978276 171.19099439 144.89581279 172.3125 145.8125 C176.29677054 149.13272545 179.90786547 152.82702817 183 157 C183 157.66 183 158.32 183 159 C183.66 159 184.32 159 185 159 C185.268125 159.804375 185.53625 160.60875 185.8125 161.4375 C186.4003125 162.7059375 186.4003125 162.7059375 187 164 C187.99 164.33 188.98 164.66 190 165 C191.1875 167.5625 191.1875 167.5625 192 170 C192.66 170 193.32 170 194 170 C195.41699219 171.76904297 195.41699219 171.76904297 197.046875 174.2421875 C197.9440625 175.59570312 197.9440625 175.59570312 198.859375 176.9765625 C199.48328125 177.93304688 200.1071875 178.88953125 200.75 179.875 C201.3584375 180.7928125 201.966875 181.710625 202.59375 182.65625 C205.58485552 187.19403828 208.5228991 191.76601364 211.390625 196.3828125 C211.87047852 197.15254395 212.35033203 197.92227539 212.84472656 198.71533203 C214.07610319 201.15050161 214.59058437 203.31269072 215 206 C215.66 206 216.32 206 217 206 C217.37511719 206.88300781 217.75023437 207.76601563 218.13671875 208.67578125 C218.64847656 209.87589844 219.16023437 211.07601562 219.6875 212.3125 C220.09524658 213.26938721 220.09524658 213.26938721 220.51123047 214.24560547 C222.14964503 218.07239861 223.85414756 221.85711147 225.625 225.625 C228.20731223 231.29128383 230.19147243 237.04492442 232 243 C232.19062012 243.62165039 232.38124023 244.24330078 232.57763672 244.88378906 C239.19756655 266.72262284 243.47931262 289.38526241 244.75390625 312.171875 C244.89607059 315.07620659 244.89607059 315.07620659 246 318 C246.26676193 320.47616341 246.492295 322.93984443 246.68359375 325.421875 C246.74402359 326.15891663 246.80445343 326.89595825 246.86671448 327.65533447 C247.12414706 330.79631388 247.37307734 333.93795111 247.62231445 337.07958984 C248.35178496 346.2100485 249.247001 355.26230249 250.51586914 364.33740234 C251.35509001 370.68636426 251.91448566 377.06101364 252.5 383.4375 C253.39474968 393.01563965 254.35082732 402.57102694 255.66796875 412.1015625 C255.97332932 414.76718063 256.06474958 417.3203636 256 420 C254 421 254 421 251.5078125 420.22265625 C250.39148438 419.83980469 249.27515625 419.45695312 248.125 419.0625 C236.94865771 415.60398045 224.99648071 416.71940953 213.44580078 417.05004883 C211 417 211 417 210 416 C209.71254189 414.06379658 209.48425214 412.11874582 209.28125 410.171875 C209.15363281 408.97949219 209.02601563 407.78710938 208.89453125 406.55859375 C208.76433594 405.30175781 208.63414062 404.04492188 208.5 402.75 C208.24160005 400.28624598 207.98125664 397.82269484 207.71875 395.359375 C207.60466797 394.26077148 207.49058594 393.16216797 207.37304688 392.03027344 C207.03818641 389.31018963 206.5388822 386.68467219 206 384 C205.80870086 382.29424937 205.64296548 380.58547988 205.5 378.875 C205.37625 377.44414063 205.37625 377.44414063 205.25 375.984375 C205.08333333 373.99479167 204.91666667 372.00520833 204.75 370.015625 C204.62625 368.58476563 204.62625 368.58476563 204.5 367.125 C204.4278125 366.26132812 204.355625 365.39765625 204.28125 364.5078125 C203.99583412 361.96285426 203.50469931 359.5093082 203 357 C202.75121168 353.62753616 202.56275471 350.25974272 202.39453125 346.8828125 C202.1906644 343.15697014 201.74745915 339.64831251 201 336 C200.84904194 333.85583644 200.7273557 331.7095326 200.625 329.5625 C199.19079838 305.06437085 197.00761339 274.37103671 185.98803711 252.14770508 C185.03201108 250.06958277 184.33426637 248.04029315 183.6640625 245.85546875 C182.00326295 240.77203682 179.78305161 236.04824099 177.4375 231.25 C172.61221153 221.2876112 172.61221153 221.2876112 171 217 C170.34 217 169.68 217 169 217 C168.71769531 216.3915625 168.43539062 215.783125 168.14453125 215.15625 C163.05206095 205.00117725 155.74956884 196.50371632 148.2578125 188.02929688 C147.70867187 187.40603516 147.15953125 186.78277344 146.59375 186.140625 C145.84641602 185.3057959 145.84641602 185.3057959 145.08398438 184.45410156 C144 183 144 183 144 181 C143.38125 180.7525 142.7625 180.505 142.125 180.25 C139.59641373 178.76259631 139.28160996 177.56321991 138 175 C137.16855469 174.59974609 137.16855469 174.59974609 136.3203125 174.19140625 C133.13368213 172.55517348 130.57433548 170.25919122 127.875 167.9375 C124.16892732 164.63589453 124.16892732 164.63589453 120 162 C120 161.34 120 160.68 120 160 C119.21625 159.690625 118.4325 159.38125 117.625 159.0625 C115 158 115 158 113 157 C113 156.34 113 155.68 113 155 C112.071875 154.731875 111.14375 154.46375 110.1875 154.1875 C107.0222283 153.00828113 106.26808528 152.26808528 104 150 C101.70732822 148.86399146 99.38254095 147.94402566 97 147 C97 146.34 97 145.68 97 145 C96.40832031 144.81824219 95.81664062 144.63648438 95.20703125 144.44921875 C90.75074401 143.03163961 86.96999613 141.50736598 83 139 C78.04874504 136.72242272 72.98162825 134.87586879 67.84375 133.0625 C65.75303384 132.2813533 63.69350327 131.41543429 61.65625 130.50390625 C57.79907433 128.91735429 54.04908212 127.87995877 50 126.9375 C48.64555249 126.61445649 47.29138275 126.29024607 45.9375 125.96484375 C45.26799316 125.80661133 44.59848633 125.64837891 43.90869141 125.48535156 C42.21868166 125.05560746 40.55502519 124.52501458 38.8984375 123.98046875 C32.97812043 122.2683184 26.73768541 121.94926735 20.625 121.375 C19.93882599 121.30996277 19.25265198 121.24492554 18.54568481 121.17791748 C-8.7299864 118.6419865 -38.51724675 117.88652066 -64.72265625 126.87890625 C-67.42257982 127.80247963 -69.95525204 128.47691883 -72.75 129 C-79.54228247 130.39294855 -86.59616727 132.92281636 -92.515625 136.53515625 C-95.27068577 138.15960246 -97.9673731 138.99808149 -101 140 C-111.532233 145.18771278 -121.27450505 151.46822046 -131 158 C-132.093125 158.721875 -133.18625 159.44375 -134.3125 160.1875 C-135.99511278 161.32228537 -137.6479993 162.50399945 -139.25 163.75 C-141 165 -141 165 -143 165 C-143.23332031 165.58265625 -143.46664062 166.1653125 -143.70703125 166.765625 C-145.30619099 169.52912764 -147.12718795 170.85231083 -149.6875 172.75 C-153.86842575 175.97027952 -157.24466881 179.31210261 -160.52734375 183.43359375 C-162 185 -162 185 -165 186 C-166.07233201 187.87343377 -166.07233201 187.87343377 -167 190 C-167.82325254 191.15133539 -168.68012462 192.27926241 -169.56640625 193.3828125 C-170.05173828 193.99253906 -170.53707031 194.60226562 -171.03710938 195.23046875 C-171.54048828 195.85566406 -172.04386719 196.48085938 -172.5625 197.125 C-176.10524788 201.34757363 -176.10524788 201.34757363 -179 206 C-179.66 206 -180.32 206 -181 206 C-181.11988281 206.59683594 -181.23976563 207.19367188 -181.36328125 207.80859375 C-182.17940747 210.61746987 -183.81883823 212.5652847 -185.54296875 214.890625 C-188.40808719 219.03851765 -190.66984465 223.53695114 -193 228 C-193.44601562 228.85078125 -193.89203125 229.7015625 -194.3515625 230.578125 C-196.84910958 235.45064017 -199.04054757 240.37080275 -201.0078125 245.48046875 C-201.75580667 247.37990276 -202.57599433 249.25113523 -203.4296875 251.10546875 C-205.51525064 255.94765334 -206.71308456 261.02478596 -208 266.125 C-208.26200195 267.14964355 -208.52400391 268.17428711 -208.79394531 269.22998047 C-209.5371459 272.15141591 -210.27086971 275.07502517 -211 278 C-211.17595703 278.70125 -211.35191406 279.4025 -211.53320312 280.125 C-214.35931122 291.4783693 -215.93720744 302.91293782 -217.18212891 314.53344727 C-217.64936246 318.88908238 -218.14579199 323.23887951 -218.6875 327.5859375 C-220.081109 338.78731164 -221.30650946 349.98754449 -222.31323242 361.22988892 C-223.37260894 373.04280261 -224.63401824 384.76295355 -226.58642578 396.46533203 C-227.04984574 399.30548904 -227.47737612 402.14993487 -227.90234375 404.99609375 C-229.99415762 418.83129308 -232.69584535 432.40584021 -236 446 C-236.36751817 447.54809862 -236.73472065 449.09627223 -237.1015625 450.64453125 C-238.51369995 456.52799491 -239.92499789 462.33559267 -242.21875 467.9453125 C-243.29476151 470.77522278 -244.13196024 473.66245807 -245 476.5625 C-246.4069981 481.19919828 -247.9989333 485.5809777 -250 490 C-250.63030003 491.58123095 -251.25480391 493.1647788 -251.875 494.75 C-253.71747115 499.39161001 -255.7506055 503.9272609 -257.8515625 508.45703125 C-258.58631224 510.0839771 -259.2820335 511.72947906 -259.92578125 513.39453125 C-265.62267028 527.21207665 -273.93696129 541.97857666 -284 553 C-285.05104383 554.63495707 -286.05988318 556.29883624 -287 558 C-288.5625 560.8125 -288.5625 560.8125 -290 563 C-290.66 563 -291.32 563 -292 563 C-292 563.66 -292 564.32 -292 565 C-292.66 565 -293.32 565 -294 565 C-294 565.99 -294 566.98 -294 568 C-295.375 569.6875 -295.375 569.6875 -297 571 C-297.66 571 -298.32 571 -299 571 C-299 571.66 -299 572.32 -299 573 C-299.66 573 -300.32 573 -301 573 C-301 573.66 -301 574.32 -301 575 C-301.66 575 -302.32 575 -303 575 C-303.4021875 575.9590625 -303.4021875 575.9590625 -303.8125 576.9375 C-305 579 -305 579 -308 580 C-309.15922128 581.73142854 -309.15922128 581.73142854 -310 584 C-310.391875 584.886875 -310.78375 585.77375 -311.1875 586.6875 C-312.22475512 590.91630935 -312.43828304 594.84415706 -311 599 C-308.46877689 602.06219795 -306.95869427 603.79863314 -303.01296872 604.62740451 C-301.89393291 604.62854367 -300.77489709 604.62968283 -299.6219511 604.63085651 C-297.67895879 604.65101447 -297.67895879 604.65101447 -295.6967141 604.67157966 C-294.2611596 604.66124421 -292.82560836 604.65044653 -291.39006042 604.63923645 C-289.86368353 604.64554736 -288.33731437 604.65404976 -286.81096059 604.66455668 C-282.61489933 604.68708915 -278.41938718 604.6784876 -274.22330868 604.6648711 C-269.69910652 604.65562008 -265.17501874 604.67514391 -260.65084839 604.69119263 C-252.81187492 604.71505252 -244.9730587 604.72063637 -237.13405418 604.71384621 C-225.80017239 604.70405513 -214.46646522 604.72176609 -203.13261167 604.74621352 C-184.74473532 604.7851287 -166.35690884 604.80176757 -147.96899414 604.80444336 C-130.10568686 604.80709041 -112.24243787 604.82020027 -94.37915039 604.84741211 C-93.27826264 604.84908549 -92.17737489 604.85075887 -91.0431269 604.85248295 C-85.52035751 604.86094236 -79.99758846 604.86960778 -74.47481954 604.87837565 C-28.6498899 604.95086004 17.17501744 604.9872115 63 605 C64.39195915 609.17587745 62.82323219 611.13474776 61 615 C60.34 615 59.68 615 59 615 C58.88527344 615.5775 58.77054688 616.155 58.65234375 616.75 C57.94620279 619.18555205 56.95332094 620.88694267 55.5625 623 C53.85846962 625.60436882 52.34726335 628.19267917 51 631 C50.34 631 49.68 631 49 631 C48.9175 631.515625 48.835 632.03125 48.75 632.5625 C47.88054568 635.38822653 46.47846205 637.73575108 44.9765625 640.26953125 C43.75613868 642.43212225 42.91082098 644.69258685 42 647 C41.52949219 647.75410156 41.05898438 648.50820313 40.57421875 649.28515625 C32.68828175 662.88497317 32.59302148 679.33138636 35.5625 694.34375 C36.31818869 698.93185988 36.62731838 700.9844641 34.09375 705.0859375 C33.24406661 706.19387926 32.37862381 707.28986544 31.5 708.375 C30.82094604 709.23436157 30.82094604 709.23436157 30.12817383 710.11108398 C26.49592329 714.60849029 22.56279936 718.44325217 18 722 C17.05125 722.804375 16.1025 723.60875 15.125 724.4375 C13 726 13 726 11 726 C11 726.66 11 727.32 11 728 C7.86221264 730.30474647 4.39551478 732.10356888 1 734 C0.154375 734.50015625 -0.69125 735.0003125 -1.5625 735.515625 C-23.81347236 747.80540624 -51.24475949 749.94793091 -75.5625 743.1875 C-80.79609666 741.66056128 -85.4127185 740.00721787 -90 737 C-91.5778125 736.3503125 -91.5778125 736.3503125 -93.1875 735.6875 C-98.04114482 733.66872737 -102.7388789 731.07795267 -107 728 C-107 727.34 -107 726.68 -107 726 C-108.32 725.67 -109.64 725.34 -111 725 C-111 724.34 -111 723.68 -111 723 C-111.66 723 -112.32 723 -113 723 C-113 722.34 -113 721.68 -113 721 C-113.721875 720.814375 -114.44375 720.62875 -115.1875 720.4375 C-118.60497639 718.69078985 -119.85978934 716.73433656 -121.88671875 713.55859375 C-122.93108945 711.83950206 -122.93108945 711.83950206 -125 711 C-125 710.34 -125 709.68 -125 709 C-125.66 709 -126.32 709 -127 709 C-128.06027128 707.37101179 -129.05141732 705.69645769 -130 704 C-130.46019531 703.29101562 -130.92039062 702.58203125 -131.39453125 701.8515625 C-136.00382371 694.61383053 -139.02500712 687.00687996 -142 679 C-142.48146484 677.72576172 -142.48146484 677.72576172 -142.97265625 676.42578125 C-145.97057517 668.03462125 -147.04812727 659.86051334 -147 651 C-148.19792883 651.00553076 -148.19792883 651.00553076 -149.42005825 651.01117325 C-168.92037229 651.09980282 -188.42064572 651.16584442 -207.92111874 651.20724869 C-217.35170192 651.22780758 -226.78215004 651.25579934 -236.21264648 651.30175781 C-244.43952821 651.34183123 -252.66631204 651.36748121 -260.89328867 651.37635398 C-265.24286029 651.38153429 -269.592152 651.3935678 -273.94163322 651.42292023 C-278.04977172 651.45041487 -282.15751957 651.45837765 -286.26574135 651.45243073 C-287.75991324 651.45351597 -289.25410054 651.46126471 -290.74819183 651.4768219 C-305.97754942 651.62739005 -319.94270415 649.27216598 -333 641 C-333.66 640.67 -334.32 640.34 -335 640 C-335 639.34 -335 638.68 -335 638 C-335.66 638 -336.32 638 -337 638 C-337 637.34 -337 636.68 -337 636 C-337.556875 635.96003906 -338.11375 635.92007813 -338.6875 635.87890625 C-342.16403259 634.55758896 -343.86237889 631.8403129 -346 628.9375 C-346.44351807 628.34549805 -346.88703613 627.75349609 -347.34399414 627.14355469 C-350.43011577 622.95087154 -353.03092501 618.83082871 -355 614 C-355.26111572 613.37085693 -355.52223145 612.74171387 -355.79125977 612.09350586 C-360.60120936 599.2725284 -360.13491154 581.73287726 -354.703125 569.16796875 C-351.5018038 563.21321761 -348.14244689 557.35506887 -344 552 C-343.34 552 -342.68 552 -342 552 C-342 551.34 -342 550.68 -342 550 C-340.57009872 548.76961983 -339.13469972 547.54466992 -337.6640625 546.36328125 C-334.24329458 543.56082114 -331.41218568 541.23655703 -330 537 C-328.33333333 535.33333333 -326.66666667 533.66666667 -325 532 C-323.9171875 530.3603125 -323.9171875 530.3603125 -322.8125 528.6875 C-322.214375 527.800625 -321.61625 526.91375 -321 526 C-320.34 526 -319.68 526 -319 526 C-318.90460938 525.43925781 -318.80921875 524.87851562 -318.7109375 524.30078125 C-317.8299358 521.44962738 -316.40798391 519.57609659 -314.625 517.1875 C-311.76499117 513.22342206 -309.69044735 509.57415164 -308 505 C-307.34 505 -306.68 505 -306 505 C-305.91234375 504.32839844 -305.8246875 503.65679688 -305.734375 502.96484375 C-304.79841046 499.18613585 -303.06106595 495.97702795 -301.25 492.5625 C-297.96072432 486.19447988 -295.37575067 479.89833642 -293.08203125 473.1015625 C-292.15823222 470.45356093 -291.13059933 467.97110861 -289.9375 465.4375 C-285.63852665 456.04536546 -283.36243868 445.82933612 -280.9375 435.82421875 C-280.37986563 433.5495352 -279.80348034 431.27911297 -279.1875 429.01953125 C-277.19919065 421.67728476 -276.05246168 414.28828512 -275.00170898 406.76464844 C-274.8268396 405.51796387 -274.8268396 405.51796387 -274.6484375 404.24609375 C-274.49640869 403.12738892 -274.49640869 403.12738892 -274.34130859 401.98608398 C-274 400 -274 400 -273 397 C-272.63782978 394.35445969 -272.30391699 391.71465059 -272 389.0625 C-271.13045168 381.51509228 -271.13045168 381.51509228 -270.46875 378.90234375 C-269.7837211 376.12226815 -269.6832791 373.35391738 -269.5 370.5 C-269.11058846 364.43630604 -269.11058846 364.43630604 -268.5 362.02734375 C-267.76823352 359.06025935 -267.68210112 356.10944203 -267.5 353.0625 C-267.10810369 346.51923117 -267.10810369 346.51923117 -266.52514648 343.71923828 C-265.90557477 340.51106081 -265.60641299 337.33674413 -265.31640625 334.08203125 C-265.19220432 332.73110627 -265.06785042 331.38019525 -264.94335938 330.02929688 C-264.75271641 327.92783043 -264.56371654 325.82624515 -264.37768555 323.72436523 C-263.7370493 316.52972318 -263.02537167 309.44166666 -261.47973633 302.3762207 C-260.566813 297.85434653 -260.10862451 293.26536478 -259.5625 288.6875 C-258.51094265 280.30104672 -257.14089256 272.18456055 -255 264 C-254.67308833 262.637362 -254.3490512 261.2740323 -254.02734375 259.91015625 C-253.68531641 258.48167007 -253.34287312 257.05328341 -253 255.625 C-252.8460376 254.97023682 -252.6920752 254.31547363 -252.53344727 253.64086914 C-251.43975155 249.19521436 -249.82997605 245.18690854 -248 241 C-247.34477313 238.9259748 -246.71906344 236.84236503 -246.125 234.75 C-244.24342446 228.53231242 -241.8560015 222.825637 -239 217 C-238.71108887 216.39784668 -238.42217773 215.79569336 -238.12451172 215.17529297 C-234.04076694 206.66660835 -229.66188105 198.52156399 -224.56640625 190.57421875 C-222.884846 188.02620948 -222.884846 188.02620948 -222 185 C-221.34 185 -220.68 185 -220 185 C-219.731875 184.278125 -219.46375 183.55625 -219.1875 182.8125 C-218.00098638 180.00233617 -216.72514361 177.51583443 -215 175 C-214.34 175 -213.68 175 -213 175 C-212.7525 174.2575 -212.505 173.515 -212.25 172.75 C-210.9016807 169.78369755 -209.35816151 168.20602206 -207 166 C-206.67 165.34 -206.34 164.68 -206 164 C-205.34 164 -204.68 164 -204 164 C-204 163.01 -204 162.02 -204 161 C-203.34 161 -202.68 161 -202 161 C-202 160.34 -202 159.68 -202 159 C-200.38025441 157.28769752 -198.7041054 155.62836738 -197 154 C-195.6696875 152.6078125 -195.6696875 152.6078125 -194.3125 151.1875 C-192 149 -192 149 -190 149 C-189.77183594 148.26007813 -189.54367187 147.52015625 -189.30859375 146.7578125 C-187.73163249 143.43442549 -185.99170264 142.06867598 -183.0625 139.875 C-179.53947992 137.20808936 -176.43275059 134.54737064 -173.4375 131.3125 C-172 130 -172 130 -170 130 C-170 129.34 -170 128.68 -170 128 C-168.34928604 126.97388051 -166.68029994 125.97691857 -165 125 C-164.505 124.505 -164.01 124.01 -163.5 123.5 C-161.54262974 121.54262974 -159.39353288 120.40489973 -157 119 C-155.65412256 118.09623221 -154.31209259 117.1867242 -152.97265625 116.2734375 C-147.96509209 112.92376943 -142.80167378 109.90777043 -137.5625 106.9375 C-136.24668945 106.18243164 -136.24668945 106.18243164 -134.90429688 105.41210938 C-125.86120579 100.26081283 -116.740276 95.67835196 -107 92 C-106.04351562 91.63648438 -105.08703125 91.27296875 -104.1015625 90.8984375 C-99.74173218 89.27372861 -95.59201609 87.81617521 -91 87 C-91.06960938 86.08863281 -91.13921875 85.17726563 -91.2109375 84.23828125 C-92.04142781 64.3658345 -85.04661862 43.19863819 -72 28 C-71.34 28 -70.68 28 -70 28 C-69.59394531 27.11054688 -69.59394531 27.11054688 -69.1796875 26.203125 C-63.57893593 15.74344326 -50.59457099 9.21185221 -40 5 C-38.41832031 4.25943359 -38.41832031 4.25943359 -36.8046875 3.50390625 C-32.624806 1.71364355 -28.41571276 0.93517611 -23.9375 0.25 C-22.6851355 0.05833252 -22.6851355 0.05833252 -21.4074707 -0.13720703 C-14.11477991 -1.15316683 -7.29615984 -1.09742475 0 0 Z M-37 55 C-38.29519995 57.16620544 -38.29519995 57.16620544 -39 59 C-39.66 59 -40.32 59 -41 59 C-41.82165509 60.70394893 -42.63190645 62.41339898 -43.4375 64.125 C-43.88996094 65.07632813 -44.34242188 66.02765625 -44.80859375 67.0078125 C-46.2867836 70.41240347 -46.2867836 70.41240347 -47 76 C-11.36 75.505 -11.36 75.505 25 75 C22.50921953 66.0670951 22.50921953 66.0670951 18 59 C17.57203125 58.44054687 17.1440625 57.88109375 16.703125 57.3046875 C15.52915687 55.8199631 14.26988983 54.40356244 13 53 C12.34 53 11.68 53 11 53 C11 52.34 11 51.68 11 51 C9.06374902 50.01836578 7.12595461 49.03977546 5.1875 48.0625 C4.10855469 47.51722656 3.02960938 46.97195312 1.91796875 46.41015625 C-11.22033208 40.06085692 -27.47757195 44.35126326 -37 55 Z M-102 651 C-102.5479353 661.97531015 -96.9120256 673.64990196 -90 682 C-88.6671653 682.66766299 -87.33387844 683.33442466 -86 684 C-85.30166032 685.31702085 -84.63584733 686.65169722 -84 688 C-79.57354118 692.24600366 -74.42333107 694.94626164 -68.78515625 697.23828125 C-67 698 -67 698 -66 699 C-50.10067815 702.37706526 -34.10619285 702.39900818 -19.76171875 693.91796875 C-6.96232231 685.02899611 2.6477836 673.57427248 6 658 C6.02490356 655.66679957 6.027645 653.33316956 6 651 C-7.34311468 650.84616966 -20.68627895 650.69798839 -34.02953625 650.5570364 C-40.22521082 650.49141026 -46.42085133 650.42383194 -52.61645508 650.35180664 C-58.59454935 650.28238153 -64.57267868 650.2180655 -70.55086708 650.15730476 C-72.83265494 650.1332128 -75.11442407 650.10727399 -77.39616966 650.07946587 C-80.58984829 650.040858 -83.7835302 650.0087925 -86.97729492 649.97827148 C-87.92244461 649.96532547 -88.8675943 649.95237946 -89.84138489 649.93904114 C-94.03099937 649.90527846 -97.91666847 649.91324659 -102 651 Z " fill="#FFFFFF" transform="translate(609,174)"/>
<path d="M0 0 C0.88623047 -0.01611328 1.77246094 -0.03222656 2.68554688 -0.04882812 C11.73185779 -0.05542646 19.31339062 2.31441951 27.3125 6.5 C28.33601562 7.02980469 29.35953125 7.55960938 30.4140625 8.10546875 C31.16429687 8.50378906 31.91453125 8.90210938 32.6875 9.3125 C32.6875 9.9725 32.6875 10.6325 32.6875 11.3125 C33.57501953 11.45365234 33.57501953 11.45365234 34.48046875 11.59765625 C44.03038322 14.69081439 51.59194487 31.6459307 56.20703125 39.74609375 C57.30049862 41.64162954 58.4736407 43.49171105 59.6875 45.3125 C59.6875 46.3025 59.6875 47.2925 59.6875 48.3125 C60.3475 48.3125 61.0075 48.3125 61.6875 48.3125 C62.67234108 50.05931293 63.65016187 51.8100851 64.625 53.5625 C65.17027344 54.53703125 65.71554687 55.5115625 66.27734375 56.515625 C67.45360835 58.84860409 68.20851691 60.76600762 68.6875 63.3125 C69.3475 63.3125 70.0075 63.3125 70.6875 63.3125 C71.52598804 64.76787568 72.35813934 66.22690373 73.1875 67.6875 C73.6515625 68.49960937 74.115625 69.31171875 74.59375 70.1484375 C75.6875 72.3125 75.6875 72.3125 75.6875 74.3125 C76.3475 74.3125 77.0075 74.3125 77.6875 74.3125 C78.04328125 75.22257813 78.3990625 76.13265625 78.765625 77.0703125 C81.18223676 82.69499046 84.35915211 87.90652083 87.4375 93.1875 C88.43015869 94.89921387 88.43015869 94.89921387 89.44287109 96.64550781 C95.21743567 106.58449613 101.12861347 116.44061654 107.0625 126.28515625 C110.50907403 132.00591916 113.91878973 137.74774843 117.3125 143.5 C117.83827637 144.39114502 118.36405273 145.28229004 118.90576172 146.20043945 C119.9631461 147.99350171 121.02027514 149.78671457 122.07714844 151.58007812 C131.58360024 167.72525344 131.58360024 167.72525344 141.1875 183.8125 C141.88808179 184.98173431 142.58860077 186.15100626 143.2890625 187.3203125 C144.61416703 189.53112659 145.94579304 191.73761716 147.28417969 193.94042969 C149.05173712 196.85129209 150.80753922 199.76902931 152.5625 202.6875 C153.12259766 203.60337891 153.68269531 204.51925781 154.25976562 205.46289062 C161.58339253 217.69859778 164.61519395 230.10619917 161.625 244.25 C158.40957957 255.90029078 151.06757393 264.94092586 140.7265625 271.06640625 C131.53662901 275.86970902 123.61977559 277.61385062 113.35993958 277.57992554 C112.34547199 277.58445665 111.33100441 277.58898776 110.28579539 277.59365618 C106.89987471 277.60627639 103.51411537 277.60468132 100.12817383 277.60302734 C97.69491368 277.60901411 95.26165542 277.61582 92.82839966 277.62338257 C86.91219806 277.63920328 80.99603404 277.64549037 75.0798156 277.64660732 C70.26699238 277.64755977 65.45418223 277.65167984 60.64136314 277.65800858 C46.97543074 277.67561131 33.30952966 277.68484911 19.64358584 277.68334763 C18.90776257 277.68326772 18.1719393 277.6831878 17.41381836 277.68310547 C16.67708933 277.68302371 15.9403603 277.68294195 15.18130615 277.68285771 C3.25010168 277.68204535 -8.68097639 277.70117274 -20.61214431 277.7293822 C-32.883274 277.75816486 -45.15434214 277.7719195 -57.42550641 277.77019465 C-64.30664081 277.76953254 -71.18764272 277.77494559 -78.06874657 277.79655075 C-84.54405697 277.81675255 -91.01916048 277.816034 -97.49448776 277.80151749 C-99.86433509 277.79943246 -102.23420004 277.80411189 -104.60401726 277.8162384 C-133.14711048 277.95277669 -133.14711048 277.95277669 -144.125 269.6875 C-145.34123047 268.80191406 -145.34123047 268.80191406 -146.58203125 267.8984375 C-147.15308594 267.37507813 -147.72414063 266.85171875 -148.3125 266.3125 C-148.3125 265.6525 -148.3125 264.9925 -148.3125 264.3125 C-149.1478125 264.003125 -149.1478125 264.003125 -150 263.6875 C-156.62175583 259.75023978 -159.87851053 252.59598274 -161.88037109 245.38183594 C-165.4176175 228.44302208 -160.46085539 214.70167281 -151.36328125 200.515625 C-149.36116395 197.38850845 -147.47964823 194.21633986 -145.625 191 C-143.69850001 187.6712177 -141.74775971 184.3726368 -139.6875 181.125 C-137.04533708 176.9554738 -134.67062041 172.64742774 -132.3125 168.3125 C-131.6525 168.3125 -130.9925 168.3125 -130.3125 168.3125 C-130.23 167.796875 -130.1475 167.28125 -130.0625 166.75 C-129.17974044 163.88103143 -127.82302883 161.57007601 -126.30078125 158.99609375 C-125.21299175 157.14298199 -124.24220317 155.24938161 -123.3125 153.3125 C-122.6525 153.3125 -121.9925 153.3125 -121.3125 153.3125 C-121.250625 152.631875 -121.18875 151.95125 -121.125 151.25 C-120.24277839 148.06042956 -118.7590531 146.02614582 -116.78125 143.41015625 C-113.05494575 138.08828023 -110.1868678 132.12934859 -107.3125 126.3125 C-106.6525 126.3125 -105.9925 126.3125 -105.3125 126.3125 C-105.18794434 125.72839355 -105.06338867 125.14428711 -104.93505859 124.54248047 C-104.31287458 122.31384171 -103.50474632 120.63099716 -102.3515625 118.6328125 C-101.96226562 117.95089844 -101.57296875 117.26898437 -101.171875 116.56640625 C-100.76453125 115.86386719 -100.3571875 115.16132812 -99.9375 114.4375 C-99.13665173 113.04505736 -98.33714956 111.65183958 -97.5390625 110.2578125 C-97.1565332 109.59168945 -96.77400391 108.92556641 -96.37988281 108.23925781 C-95.40640867 106.48201674 -94.52213483 104.67611013 -93.6484375 102.8671875 C-92.3125 100.3125 -92.3125 100.3125 -90.3125 99.3125 C-89.25564146 97.57500159 -88.26458024 95.79705145 -87.3125 94 C-86.796875 93.03449219 -86.28125 92.06898438 -85.75 91.07421875 C-84.58202819 88.83031639 -83.43297567 86.58038584 -82.3125 84.3125 C-81.6525 84.3125 -80.9925 84.3125 -80.3125 84.3125 C-80.209375 83.77625 -80.10625 83.24 -80 82.6875 C-79.13157303 79.68747956 -77.75629704 77.0745465 -76.3125 74.3125 C-75.6525 74.3125 -74.9925 74.3125 -74.3125 74.3125 C-73.9825 72.6625 -73.6525 71.0125 -73.3125 69.3125 C-72.6525 69.3125 -71.9925 69.3125 -71.3125 69.3125 C-71.23 68.796875 -71.1475 68.28125 -71.0625 67.75 C-69.99109775 64.26794268 -68.17726395 61.44049115 -66.3125 58.3125 C-65.6525 58.3125 -64.9925 58.3125 -64.3125 58.3125 C-64.20292969 57.58289063 -64.09335937 56.85328125 -63.98046875 56.1015625 C-63.27234895 53.14485175 -62.2524068 51.24180254 -60.625 48.6875 C-57.300264 43.34216173 -54.28618403 37.85915887 -51.3125 32.3125 C-50.6525 32.3125 -49.9925 32.3125 -49.3125 32.3125 C-49.23 31.796875 -49.1475 31.28125 -49.0625 30.75 C-47.99109775 27.26794268 -46.17726395 24.44049115 -44.3125 21.3125 C-43.6525 21.3125 -42.9925 21.3125 -42.3125 21.3125 C-42.044375 20.673125 -41.77625 20.03375 -41.5 19.375 C-40.3125 17.3125 -40.3125 17.3125 -37.3125 16.3125 C-37.044375 15.714375 -36.77625 15.11625 -36.5 14.5 C-32.75553054 7.6022931 -21.06278715 3.65771169 -14.078125 1.15234375 C-9.32519727 0.09230281 -4.85383511 -0.01742224 0 0 Z M-15.3125 53.3125 C-20.46189302 73.64031088 -17.46167958 98.26879572 -17.54367065 119.16015625 C-17.55475283 121.92065692 -17.5725947 124.68098511 -17.59622192 127.44140625 C-17.62908217 131.37761505 -17.63602366 135.31365223 -17.640625 139.25 C-17.65292648 140.43327881 -17.66522797 141.61655762 -17.67790222 142.83569336 C-17.65767747 150.46583282 -16.99994065 157.22838452 -12.7265625 163.72265625 C-7.47773693 168.57037069 -3.20895677 169.0097921 3.83203125 168.75390625 C6.88068607 168.48782136 6.88068607 168.48782136 9.6875 166.3125 C9.6875 165.6525 9.6875 164.9925 9.6875 164.3125 C10.3475 164.3125 11.0075 164.3125 11.6875 164.3125 C16.87029718 158.69780306 16.9827777 152.12736625 16.9621582 144.9140625 C16.96726913 143.98648132 16.97238007 143.05890015 16.97764587 142.10321045 C16.99150577 139.04790736 16.99058805 135.99283072 16.98828125 132.9375 C16.99216965 130.80810462 16.99650462 128.67871001 17.00126648 126.54931641 C17.00872057 122.09079471 17.0084429 117.63235221 17.00317383 113.17382812 C16.99737496 107.46407705 17.01432437 101.75464991 17.0375185 96.04495239 C17.05225723 91.64915069 17.05312743 87.25342702 17.05000877 82.85760498 C17.05052174 80.75249591 17.05575479 78.64738243 17.06582069 76.54229736 C17.07817267 73.59829693 17.07140107 70.654928 17.05981445 67.7109375 C17.06745819 66.84426453 17.07510193 65.97759155 17.08297729 65.08465576 C17.03036981 59.02962058 15.79934067 54.95230084 11.9375 50.125 C8.22832856 47.13705634 4.45337152 45.57550214 -0.25 44.875 C-6.0973761 45.71033944 -11.7038584 48.54909309 -15.3125 53.3125 Z M-15.80859375 193.7734375 C-20.14413523 198.2103293 -21.94071868 203.83493051 -22.4296875 209.92578125 C-22.21630241 214.27172426 -20.81125985 218.25653408 -19.3125 222.3125 C-18.6525 222.3125 -17.9925 222.3125 -17.3125 222.3125 C-16.9825 223.6325 -16.6525 224.9525 -16.3125 226.3125 C-14.9925 226.6425 -13.6725 226.9725 -12.3125 227.3125 C-12.3125 227.9725 -12.3125 228.6325 -12.3125 229.3125 C-5.81899511 232.93816406 1.5801493 232.91858017 8.65234375 231.03515625 C14.49693843 228.95982033 17.69136959 225.63895405 20.6875 220.3125 C22.8557351 213.47753373 22.51642982 205.60409472 19.6796875 199.0390625 C18.09547573 196.28228454 16.12901264 194.31579243 13.6875 192.3125 C13.0275 192.3125 12.3675 192.3125 11.6875 192.3125 C11.6875 191.6525 11.6875 190.9925 11.6875 190.3125 C3.22876579 186.08313289 -8.56662599 188.02691088 -15.80859375 193.7734375 Z " fill="#FFFFFF" transform="translate(836.3125,620.6875)"/>
<path d="M0 0 C4.20115605 2.39338587 6.78747358 5.61509752 8.20703125 10.29296875 C9.5147868 16.80730249 9.01768977 22.57459491 5.625 28.375 C3.46898208 30.63083357 1.23526052 32.65788887 -1.375 34.375 C-2.035 34.375 -2.695 34.375 -3.375 34.375 C-3.375 35.035 -3.375 35.695 -3.375 36.375 C-4.77949268 37.53970125 -6.18720669 38.70069883 -7.609375 39.84375 C-10.89473233 42.69299795 -13.58710766 46.04988702 -16.375 49.375 C-17.12394531 50.23609375 -17.87289062 51.0971875 -18.64453125 51.984375 C-23.61746137 57.82323823 -27.20904155 63.42251316 -30.375 70.375 C-31.37271395 72.29285765 -32.37283296 74.20946552 -33.375 76.125 C-38.84351018 87.11825182 -42.10073189 98.34289237 -44.375 110.375 C-44.55933594 111.19484375 -44.74367188 112.0146875 -44.93359375 112.859375 C-45.47380926 115.93812534 -45.56928692 118.93829721 -45.6875 122.0625 C-46.11133627 130.4785352 -47.44296798 138.70060626 -48.7878418 147.01098633 C-50.27198774 156.32696973 -51.37874756 165.65639072 -52.33544922 175.0402832 C-54.58434291 196.73893284 -54.58434291 196.73893284 -59.375 202.375 C-59.973125 203.1175 -60.57125 203.86 -61.1875 204.625 C-65.38686138 207.98448911 -69.71035631 208.60899479 -74.9375 208.125 C-76.41973276 207.89387218 -77.89939995 207.64525642 -79.375 207.375 C-80.426875 207.21 -81.47875 207.045 -82.5625 206.875 C-87.19520035 204.40422648 -89.47445348 201.24719142 -91.375 196.375 C-92.87790107 185.69584932 -90.73729469 174.88732339 -89.09765625 164.3359375 C-88.49040019 160.34926761 -88.0999034 156.40412048 -87.875 152.375 C-87.37467496 143.99700822 -86.06701264 135.759574 -84.82519531 127.46630859 C-84.3351963 124.10168415 -83.88002001 120.73343771 -83.4296875 117.36328125 C-79.24201689 86.31079787 -79.24201689 86.31079787 -73.43359375 72.86328125 C-72.17512886 69.90519219 -71.1005111 66.89525252 -70 63.875 C-67.72236606 57.91811123 -64.79843129 52.73300188 -61.375 47.375 C-60.65755765 46.15112775 -59.94824077 44.92242779 -59.25 43.6875 C-57.88028564 41.2676713 -56.50558543 38.85111089 -55.125 36.4375 C-54.5475 35.426875 -53.97 34.41625 -53.375 33.375 C-52.715 33.375 -52.055 33.375 -51.375 33.375 C-51.148125 32.84390625 -50.92125 32.3128125 -50.6875 31.765625 C-48.94130711 28.58505938 -46.69438714 25.89501093 -44.375 23.125 C-43.92382812 22.57070313 -43.47265625 22.01640625 -43.0078125 21.4453125 C-41.84426971 20.04768418 -40.61405262 18.70614437 -39.375 17.375 C-38.715 17.375 -38.055 17.375 -37.375 17.375 C-37.375 16.715 -37.375 16.055 -37.375 15.375 C-36.715 15.375 -36.055 15.375 -35.375 15.375 C-34.88 13.89 -34.88 13.89 -34.375 12.375 C-24.75107328 3.19789845 -13.67078615 -6.01108779 0 0 Z " fill="#FFFFFF" transform="translate(517.375,367.625)"/>
</svg>
